<svg xmlns="http://www.w3.org/2000/svg" width="1024" height="1024" viewBox="0 0 1024 1024" version="1.1"><path d="M 550.500 286.109 C 533.712 288.528, 513.456 297.029, 499.560 307.487 C 480.984 321.468, 466.430 343.398, 459.399 368 C 457.565 374.418, 456.006 377.968, 454.592 378.942 C 449.338 382.562, 437.450 395.106, 433.238 401.475 C 424.412 414.822, 417.912 433.659, 414.079 457 C 411.912 470.199, 411.457 473.893, 407.497 510.500 C 404.075 542.135, 402.611 551.945, 401.481 550.815 C 400.097 549.430, 394.954 503.890, 390.040 449.500 C 383.925 381.820, 380.908 363.151, 374.424 352.879 C 371.505 348.256, 369.322 347, 364.201 347 C 356.114 347, 351.973 353.595, 346.993 374.407 C 344.028 386.796, 342.418 396.311, 334.451 448.500 C 329.346 481.942, 324.048 509.639, 321.142 518.088 C 319.038 524.203, 316.252 530, 315.418 530 C 314.228 530, 310.870 520.626, 308.566 510.875 C 307.218 505.169, 304.070 488.760, 301.571 474.411 C 294.923 436.243, 291.375 423.913, 284.926 416.568 C 281.371 412.520, 278.237 411.590, 272.949 413.014 C 265.951 414.898, 263.124 421.015, 255.462 450.845 C 248.823 476.695, 242.530 488.708, 232.613 494.463 C 222.167 500.526, 203.665 503.809, 175 504.688 C 164.825 505, 155.927 505.559, 155.227 505.930 C 153.523 506.834, 197.244 511.048, 208 511.017 C 218.570 510.986, 233.065 508.694, 240.704 505.845 C 248.914 502.783, 258.311 493.200, 263.697 482.396 C 267.453 474.863, 272.262 461.613, 275.091 451 L 276.291 446.500 277.647 451.500 C 278.392 454.250, 281.212 468.200, 283.912 482.500 C 289.661 512.943, 292.914 526.294, 296.731 535.107 C 302.315 548, 306.273 552.032, 314.085 552.782 C 320.338 553.383, 324.190 551.765, 328.504 546.724 C 337.963 535.673, 344.097 511.142, 354.980 440.841 C 361.022 401.810, 363.445 389.403, 364.323 393 C 365.984 399.800, 368.252 418.993, 371.473 453.500 C 381.106 556.724, 385.723 584.369, 394.949 594.067 C 399.367 598.711, 404.018 599.347, 408.393 595.905 C 416.169 589.789, 419.234 575.712, 426.007 515 C 431.355 467.054, 434.080 451.484, 439.129 440 C 441.479 434.654, 445.676 430, 448.147 430 C 450.745 430, 453.450 439.763, 456.488 460.114 C 460.349 485.973, 462.561 493.624, 466.835 495.912 C 468.523 496.815, 469.193 496.570, 470.871 494.437 C 475.001 489.186, 476.970 469.803, 477.010 434 C 477.043 404.830, 479.120 385.785, 483.885 370.976 C 489.460 353.648, 489.501 353.767, 490.835 391.134 C 491.490 409.485, 492.268 432.825, 492.564 443 C 493.193 464.625, 494.088 470.240, 498.280 478.848 C 506.693 496.124, 521.294 503.919, 542.996 502.718 C 554.951 502.056, 564.279 499.590, 581.720 492.479 C 620.258 476.768, 626.374 474.995, 644.512 474.273 C 663.676 473.510, 677.397 476.847, 690.289 485.404 C 696.991 489.852, 700.176 489.978, 704.200 485.954 C 706.822 483.332, 707.164 482.399, 706.656 479.267 C 705.930 474.793, 703.275 472.502, 691.961 466.588 C 670.893 455.575, 645.857 453.571, 617.777 460.653 C 612.130 462.077, 597.158 467.408, 584.505 472.501 C 571.852 477.593, 558.350 482.548, 554.500 483.512 C 545.829 485.681, 535.021 485.934, 528.740 484.114 C 522.694 482.362, 515.908 476.420, 512.928 470.270 C 510.635 465.537, 510.610 465.066, 509.707 409.500 C 508.700 347.567, 508.834 345.435, 514.463 333.552 C 522.622 316.330, 539.984 306.414, 564 305.262 C 581.496 304.422, 598.340 309.367, 614.200 320 C 621.914 325.172, 624.672 328, 622.001 328 C 619.683 328, 606.550 334.301, 599.604 338.746 C 585.745 347.614, 573 363.809, 573 372.553 C 573 377.772, 576.107 381.014, 581.064 380.968 C 585.576 380.926, 587.162 379.587, 590.499 373.002 C 601.532 351.228, 639.363 335.562, 672.500 339.043 C 706.663 342.632, 734.914 358.508, 749.250 382.172 C 751.313 385.577, 753 388.642, 753 388.984 C 753 389.325, 749.063 388.997, 744.250 388.255 C 728.942 385.893, 709.294 388.205, 693.500 394.226 C 681.597 398.764, 672.360 404.524, 664.250 412.467 C 657.617 418.964, 657 419.912, 657 423.610 C 657 430.741, 663.156 434.039, 669.928 430.537 C 671.485 429.732, 673.018 428.396, 673.336 427.566 C 674.287 425.090, 685.975 416.952, 693.881 413.263 C 724.491 398.979, 761.273 403.754, 788.898 425.599 C 806.973 439.891, 818.503 459.590, 822.586 483.154 C 824.957 496.834, 822.985 517.317, 818.100 529.753 L 816.333 534.251 813.147 528.606 C 806.656 517.104, 792.684 506.178, 779.058 501.947 C 770.723 499.359, 755.570 497.468, 750.638 498.402 C 742.698 499.904, 739.562 507.054, 744.383 512.659 C 746.557 515.187, 747.300 515.409, 752.831 515.191 C 773.102 514.390, 794.632 526.344, 799.542 541.125 C 805.391 558.736, 792.639 574.290, 764.943 583.325 C 728.094 595.346, 674.592 588.297, 645.586 567.599 C 637.555 561.868, 628.361 551.920, 627.509 548.039 C 626.663 544.191, 623.560 542, 618.952 542 C 614.896 542, 611.568 544.807, 610.495 549.134 C 609.100 554.756, 618.937 568.594, 631.498 578.683 C 644.344 589, 660.647 596.276, 686.500 603.229 L 691.500 604.573 678.500 608.320 C 631.478 621.873, 608.340 631.559, 587.712 646.325 C 575.523 655.051, 562.168 668.839, 553.716 681.422 L 551.081 685.344 549.939 682.422 C 548.281 678.182, 545.316 663.247, 543.503 650 C 542.638 643.675, 541.520 625.225, 541.019 609 C 539.585 562.575, 538.117 538.907, 535.890 526.307 C 534.877 520.576, 534.571 520.065, 531.787 519.453 C 526.431 518.277, 525.632 520.212, 524.846 536.264 C 523.767 558.320, 523.898 658.839, 525.026 674.488 C 528.037 716.251, 534.822 733.982, 547.800 733.996 C 555.567 734.005, 559.347 729.978, 565.859 714.761 C 578.379 685.505, 596.942 666.299, 626.500 652.022 C 637.778 646.574, 652.509 641.601, 681.099 633.589 C 709.949 625.504, 721.307 620.810, 732 612.551 C 737.345 608.423, 737.768 608.285, 747 607.641 C 785.348 604.969, 819.393 585.650, 836.935 556.608 C 842.584 547.255, 845.039 541.400, 848.177 529.798 C 851.163 518.757, 851.410 494.912, 848.671 482 C 841.725 449.255, 818.496 418.682, 787.985 402.126 C 781.097 398.388, 780.631 397.906, 778.073 391.852 C 766.108 363.533, 743.379 341.793, 713.791 330.366 C 698.089 324.302, 685.733 321.903, 667 321.281 L 650.500 320.733 645.069 315.775 C 620.208 293.078, 583.042 281.419, 550.500 286.109 M 444.566 491.132 C 444.273 492.434, 442.889 505.200, 441.491 519.500 C 437.514 560.161, 436.054 573.822, 434.684 583.190 L 433.413 591.881 440.456 597.296 C 449.415 604.184, 456.216 608.002, 468.243 612.895 C 481.328 618.219, 491.039 624.740, 500.247 634.385 L 507.993 642.500 507.955 578 L 507.916 513.500 502.514 509.500 C 497.835 506.035, 492.133 499.931, 488.949 494.976 C 487.629 492.923, 486.693 494.519, 483.361 504.500 C 475.498 528.054, 471.571 533.517, 465.024 530.013 C 462.111 528.454, 459.562 523.581, 452.433 505.950 C 448.775 496.902, 445.629 489.334, 445.440 489.132 C 445.252 488.930, 444.858 489.830, 444.566 491.132" stroke="none" fill="#1c4e89" fill-rule="evenodd"/><path d="M 0 512.001 L 0 1024.002 512.250 1023.751 L 1024.500 1023.500 1024.751 511.750 L 1025.002 0 512.501 0 L 0 0 0 512.001 M 0.496 512.500 C 0.496 794.100, 0.610 909.151, 0.750 768.168 C 0.890 627.186, 0.890 396.786, 0.750 256.168 C 0.610 115.551, 0.496 230.900, 0.496 512.500 M 550.500 286.109 C 533.712 288.528, 513.456 297.029, 499.560 307.487 C 480.984 321.468, 466.430 343.398, 459.399 368 C 457.565 374.418, 456.006 377.968, 454.592 378.942 C 449.338 382.562, 437.450 395.106, 433.238 401.475 C 424.412 414.822, 417.912 433.659, 414.079 457 C 411.912 470.199, 411.457 473.893, 407.497 510.500 C 404.075 542.135, 402.611 551.945, 401.481 550.815 C 400.097 549.430, 394.954 503.890, 390.040 449.500 C 383.925 381.820, 380.908 363.151, 374.424 352.879 C 371.505 348.256, 369.322 347, 364.201 347 C 356.114 347, 351.973 353.595, 346.993 374.407 C 344.028 386.796, 342.418 396.311, 334.451 448.500 C 329.346 481.942, 324.048 509.639, 321.142 518.088 C 319.038 524.203, 316.252 530, 315.418 530 C 314.228 530, 310.870 520.626, 308.566 510.875 C 307.218 505.169, 304.070 488.760, 301.571 474.411 C 294.923 436.243, 291.375 423.913, 284.926 416.568 C 281.371 412.520, 278.237 411.590, 272.949 413.014 C 265.951 414.898, 263.124 421.015, 255.462 450.845 C 248.823 476.695, 242.530 488.708, 232.613 494.463 C 222.167 500.526, 203.665 503.809, 175 504.688 C 164.825 505, 155.927 505.559, 155.227 505.930 C 153.523 506.834, 197.244 511.048, 208 511.017 C 218.570 510.986, 233.065 508.694, 240.704 505.845 C 248.914 502.783, 258.311 493.200, 263.697 482.396 C 267.453 474.863, 272.262 461.613, 275.091 451 L 276.291 446.500 277.647 451.500 C 278.392 454.250, 281.212 468.200, 283.912 482.500 C 289.661 512.943, 292.914 526.294, 296.731 535.107 C 302.315 548, 306.273 552.032, 314.085 552.782 C 320.338 553.383, 324.190 551.765, 328.504 546.724 C 337.963 535.673, 344.097 511.142, 354.980 440.841 C 361.022 401.810, 363.445 389.403, 364.323 393 C 365.984 399.800, 368.252 418.993, 371.473 453.500 C 381.106 556.724, 385.723 584.369, 394.949 594.067 C 399.367 598.711, 404.018 599.347, 408.393 595.905 C 416.169 589.789, 419.234 575.712, 426.007 515 C 431.355 467.054, 434.080 451.484, 439.129 440 C 441.479 434.654, 445.676 430, 448.147 430 C 450.745 430, 453.450 439.763, 456.488 460.114 C 460.349 485.973, 462.561 493.624, 466.835 495.912 C 468.523 496.815, 469.193 496.570, 470.871 494.437 C 475.001 489.186, 476.970 469.803, 477.010 434 C 477.043 404.830, 479.120 385.785, 483.885 370.976 C 489.460 353.648, 489.501 353.767, 490.835 391.134 C 491.490 409.485, 492.268 432.825, 492.564 443 C 493.193 464.625, 494.088 470.240, 498.280 478.848 C 506.693 496.124, 521.294 503.919, 542.996 502.718 C 554.951 502.056, 564.279 499.590, 581.720 492.479 C 620.258 476.768, 626.374 474.995, 644.512 474.273 C 663.676 473.510, 677.397 476.847, 690.289 485.404 C 696.991 489.852, 700.176 489.978, 704.200 485.954 C 706.822 483.332, 707.164 482.399, 706.656 479.267 C 705.930 474.793, 703.275 472.502, 691.961 466.588 C 670.893 455.575, 645.857 453.571, 617.777 460.653 C 612.130 462.077, 597.158 467.408, 584.505 472.501 C 571.852 477.593, 558.350 482.548, 554.500 483.512 C 545.829 485.681, 535.021 485.934, 528.740 484.114 C 522.694 482.362, 515.908 476.420, 512.928 470.270 C 510.635 465.537, 510.610 465.066, 509.707 409.500 C 508.700 347.567, 508.834 345.435, 514.463 333.552 C 522.622 316.330, 539.984 306.414, 564 305.262 C 581.496 304.422, 598.340 309.367, 614.200 320 C 621.914 325.172, 624.672 328, 622.001 328 C 619.683 328, 606.550 334.301, 599.604 338.746 C 585.745 347.614, 573 363.809, 573 372.553 C 573 377.772, 576.107 381.014, 581.064 380.968 C 585.576 380.926, 587.162 379.587, 590.499 373.002 C 601.532 351.228, 639.363 335.562, 672.500 339.043 C 706.663 342.632, 734.914 358.508, 749.250 382.172 C 751.313 385.577, 753 388.642, 753 388.984 C 753 389.325, 749.063 388.997, 744.250 388.255 C 728.942 385.893, 709.294 388.205, 693.500 394.226 C 681.597 398.764, 672.360 404.524, 664.250 412.467 C 657.617 418.964, 657 419.912, 657 423.610 C 657 430.741, 663.156 434.039, 669.928 430.537 C 671.485 429.732, 673.018 428.396, 673.336 427.566 C 674.287 425.090, 685.975 416.952, 693.881 413.263 C 724.491 398.979, 761.273 403.754, 788.898 425.599 C 806.973 439.891, 818.503 459.590, 822.586 483.154 C 824.957 496.834, 822.985 517.317, 818.100 529.753 L 816.333 534.251 813.147 528.606 C 806.656 517.104, 792.684 506.178, 779.058 501.947 C 770.723 499.359, 755.570 497.468, 750.638 498.402 C 742.698 499.904, 739.562 507.054, 744.383 512.659 C 746.557 515.187, 747.300 515.409, 752.831 515.191 C 773.102 514.390, 794.632 526.344, 799.542 541.125 C 805.391 558.736, 792.639 574.290, 764.943 583.325 C 728.094 595.346, 674.592 588.297, 645.586 567.599 C 637.555 561.868, 628.361 551.920, 627.509 548.039 C 626.663 544.191, 623.560 542, 618.952 542 C 614.896 542, 611.568 544.807, 610.495 549.134 C 609.100 554.756, 618.937 568.594, 631.498 578.683 C 644.344 589, 660.647 596.276, 686.500 603.229 L 691.500 604.573 678.500 608.320 C 631.478 621.873, 608.340 631.559, 587.712 646.325 C 575.523 655.051, 562.168 668.839, 553.716 681.422 L 551.081 685.344 549.939 682.422 C 548.281 678.182, 545.316 663.247, 543.503 650 C 542.638 643.675, 541.520 625.225, 541.019 609 C 539.585 562.575, 538.117 538.907, 535.890 526.307 C 534.877 520.576, 534.571 520.065, 531.787 519.453 C 526.431 518.277, 525.632 520.212, 524.846 536.264 C 523.767 558.320, 523.898 658.839, 525.026 674.488 C 528.037 716.251, 534.822 733.982, 547.800 733.996 C 555.567 734.005, 559.347 729.978, 565.859 714.761 C 578.379 685.505, 596.942 666.299, 626.500 652.022 C 637.778 646.574, 652.509 641.601, 681.099 633.589 C 709.949 625.504, 721.307 620.810, 732 612.551 C 737.345 608.423, 737.768 608.285, 747 607.641 C 785.348 604.969, 819.393 585.650, 836.935 556.608 C 842.584 547.255, 845.039 541.400, 848.177 529.798 C 851.163 518.757, 851.410 494.912, 848.671 482 C 841.725 449.255, 818.496 418.682, 787.985 402.126 C 781.097 398.388, 780.631 397.906, 778.073 391.852 C 766.108 363.533, 743.379 341.793, 713.791 330.366 C 698.089 324.302, 685.733 321.903, 667 321.281 L 650.500 320.733 645.069 315.775 C 620.208 293.078, 583.042 281.419, 550.500 286.109 M 444.566 491.132 C 444.273 492.434, 442.889 505.200, 441.491 519.500 C 437.514 560.161, 436.054 573.822, 434.684 583.190 L 433.413 591.881 440.456 597.296 C 449.415 604.184, 456.216 608.002, 468.243 612.895 C 481.328 618.219, 491.039 624.740, 500.247 634.385 L 507.993 642.500 507.955 578 L 507.916 513.500 502.514 509.500 C 497.835 506.035, 492.133 499.931, 488.949 494.976 C 487.629 492.923, 486.693 494.519, 483.361 504.500 C 475.498 528.054, 471.571 533.517, 465.024 530.013 C 462.111 528.454, 459.562 523.581, 452.433 505.950 C 448.775 496.902, 445.629 489.334, 445.440 489.132 C 445.252 488.930, 444.858 489.830, 444.566 491.132" stroke="none" fill="transparent" fill-rule="evenodd"/></svg>